<?xml version="1.0" encoding="UTF-8"?>
<svg id="Capa_1" data-name="Capa 1" xmlns="http://www.w3.org/2000/svg" viewBox="0 0 4032 637.71">
  <defs>
    <style>
      .cls-1 {
        fill: #fff;
      }

      .cls-2 {
        fill: #b41412;
      }

      .cls-3 {
        fill: #b31918;
      }
    </style>
  </defs>
  <path class="cls-1" d="M2414.84,166.86h115.03c19.8,0,45.38.78,60.16,21.9,6.61,9.49,10.29,22.42,10.29,36.68,0,17.94-5.8,30.07-12.66,38.26-15.3,18.46-37.72,19.51-61.75,19.51h-65.17v70.19h-45.91v-186.54ZM2460.75,250.5h57.52c15.04,0,35.62-.27,35.62-25.06,0-10.03-3.43-16.37-7.92-20.58-6.33-5.55-13.18-5.55-32.71-5.55h-52.51v51.19Z"/>
  <polygon class="cls-1" points="2629.25 167.12 2675.96 167.12 2675.96 319.1 2779.38 319.1 2779.38 353.4 2629.25 353.4 2629.25 167.12"/>
  <path class="cls-1" d="M2898.21,167.12h50.39l89.97,186.29h-52.24l-15.84-35.09h-95.51l-15.84,35.09h-50.92l89.97-186.29ZM2927.76,224.38c-1.32-2.38-2.38-5.02-3.16-7.39-.79-2.37-1.32-4.74-1.59-7.38-.79,2.37-1.32,4.48-1.85,6.59-1.05,2.38-1.85,4.77-2.91,7.12l-28.23,62.01h65.44l-27.7-60.95Z"/>
  <path class="cls-1" d="M3071.5,167.12h46.43l91.29,103.7c11.08,12.92,13.2,15.57,24.81,30.07-1.59-17.67-1.59-22.42-1.86-38.52v-95.25h44.6v186.28h-46.18l-92.34-105.02c-9.76-11.34-13.72-16.09-24.01-29.29,1.32,14.26,1.32,17.43,1.59,31.67v102.63h-44.33v-186.28Z"/>
  <path class="cls-1" d="M3399.68,167.12h50.41l89.97,186.29h-52.24l-15.84-35.09h-95.52l-15.82,35.09h-50.93l89.97-186.29ZM3429.24,224.38c-1.32-2.38-2.38-5.02-3.16-7.39-.79-2.37-1.32-4.74-1.58-7.38-.79,2.37-1.33,4.48-1.86,6.59-1.05,2.38-1.85,4.77-2.91,7.12l-28.23,62.01h65.44l-27.7-60.95Z"/>
  <path class="cls-1" d="M3573.37,167.12h128.24c21.1,0,40.37,1.85,55.93,19.78,9.51,11.1,12.13,25.07,12.13,35.89,0,14.26-4.73,31.14-17.94,41.17-10.03,7.65-22.96,10.29-30.34,11.61l56.47,77.84h-54.89l-49.87-74.93h-53.03v74.93h-46.7v-186.29ZM3620.08,245.48h74.42c10.02,0,27.96-1.32,27.96-22.17,0-3.69-.53-10.02-3.69-14.5-3.43-4.48-7.92-8.97-26.39-8.97h-72.29v45.64Z"/>
  <path class="cls-2" d="M3095.14,409.42c284.37.22,572.19,19.58,765.65,60.72-170.36-58.82-465.87-96.83-765.63-97.1-299.7-.26-595.34,37.27-765.78,95.8,193.55-40.78,481.4-59.67,765.75-59.43"/>
  <path class="cls-3" d="M3860.62,470.83c-193.35-41.13-481.14-60.5-765.47-60.72v-1.38c278.87.2,561.07,18.82,754.4,58.36-171.76-56.67-461.05-93.09-754.38-93.34-1.01,0-2.02-.03-3.05,0-292.25-.03-580.27,35.89-751.51,92.07,192.19-38.93,472.04-57.11,749.17-57.11,1.77,0,3.56,0,5.36.01v1.38c-1.79,0-3.58-.01-5.36,0-282.59-.01-568,18.91-760.24,59.43-.37.08-.73-.14-.82-.51-.1-.35.09-.72.44-.83,269.12-92.43,569.82-95.85,762.96-95.85,1.03,0,2.04,0,3.06.01,299.8.27,595.33,38.27,765.83,97.13.35.13.53.5.42.86-.08.29-.36.51-.64.51-.08,0-.1-.01-.18-.03"/>
  <path class="cls-1" d="M3831.72,411.91c0,10.6-8.33,18.91-19.16,18.91s-19.26-8.32-19.26-18.91,8.55-18.68,19.26-18.68,19.16,8.32,19.16,18.68M3798.09,411.91c0,8.32,6.15,14.93,14.59,14.93s14.24-6.61,14.24-14.81-6.02-15.03-14.35-15.03-14.48,6.71-14.48,14.91M3809.62,421.71h-4.34v-18.68c1.7-.35,4.09-.58,7.19-.58,3.52,0,5.12.58,6.47,1.37,1.04.79,1.86,2.28,1.86,4.1,0,2.05-1.6,3.65-3.88,4.33v.22c1.82.69,2.84,2.06,3.42,4.56.56,2.86.88,4,1.35,4.68h-4.66c-.56-.68-.92-2.4-1.49-4.56-.32-2.05-1.46-2.96-3.88-2.96h-2.02v7.52ZM3809.72,411.11h2.06c2.38,0,4.31-.79,4.31-2.74,0-1.7-1.24-2.84-3.98-2.84-1.14,0-1.92.12-2.38.23v5.36Z"/>
  <path class="cls-1" d="M170.6,198.04h68.81v108.28s0,13.48,13.52,13.48h208.7v31.88h-230.04s-33.29,1.87-48.18-13.01c-14.57-14.61-12.8-28-12.8-28v-112.64Z"/>
  <path class="cls-1" d="M789.02,198.04h-248.48c-16.8,0-38.71,0-38.71,29.56v103.17c0,21,22.68,21,38.71,21h248.48v-29.2h-209.15c-8.99,0-10.34-8.17-10.34-8.17v-23.51h219.49v-33.29h-219.49v-21.83s0-7.66,10.34-7.66h209.15v-30.06Z"/>
  <path class="cls-1" d="M829.42,197.73h66.96v54.67s2.17,11.84,11.81,11.84h142.51v-66.51h69.45v118.33s.27,36.03-36.07,36.03h-254.66v-27.33h213.31s9.14-.06,9.14-14.38v-22.37h-178.42s-44.03-.7-44.03-36v-54.28Z"/>
  <path class="cls-1" d="M1381.82,265.09v-25.46s1.4-14.2-17.89-14.2h-121.13c-13.82,0-14.93,14.2-14.93,14.2v25.46h153.95ZM1160.17,352.09v-121.16s.35-33.2,41.48-33.2h211.76c32.24,0,34.71,31.71,34.71,31.71v122.65h-67.38v-58.94h-152.86v58.94h-67.7Z"/>
  <path class="cls-1" d="M1557.03,267.27h137.98c13.48,0,12.74-11.26,12.74-11.26v-16.73c0-11.3-13.84-13.84-13.84-13.84h-121.29c-16.94,0-15.59,14.12-15.59,14.12v27.71ZM1524.2,197.73h212.64s40.81-.28,40.81,32.4v37.9s0,30.92-36.4,30.92c-2.91,0-9.58.04-9.58.04l40.9,53.1h-85.92l-37.73-53.1h-91.18v53.1h-68.4v-123.39s1.04-30.97,34.86-30.97"/>
  <path class="cls-1" d="M1885.86,225.43v96.83h81.58s26.52-.36,46.45-7.91c10.56-4.18,24.86-17.54,24.86-26.83v-52.61s1.65-9.48-9.85-9.48h-143.03ZM1845.93,197.74h231.84s25.4-1.61,25.4,23.5v66.88s-3.1,31.03-29.19,44.74c0,0-29.85,19.12-67.22,19.22h-184.24v-129.99s-.05-24.36,23.41-24.36"/>
  <path class="cls-1" d="M170.89,198.88h68.78v108.24s0,13.47,13.51,13.47h208.62v31.88h-229.95s-33.28,1.86-48.15-13.01c-14.57-14.61-12.8-28-12.8-28v-112.59Z"/>
  <path class="cls-1" d="M789.06,198.88h-248.38c-16.8,0-38.7,0-38.7,29.55v103.13c0,20.99,22.67,20.99,38.7,20.99h248.38v-29.19h-209.07c-8.98,0-10.33-8.17-10.33-8.17v-23.5h219.4v-33.26h-219.4v-21.83s0-7.66,10.33-7.66h209.07v-30.05Z"/>
  <path class="cls-1" d="M829.44,198.58h66.93v54.66s2.17,11.83,11.81,11.83h142.44v-66.49h69.42v118.28s.27,36.02-36.06,36.02h-254.55v-27.32h213.23s9.14-.06,9.14-14.38v-22.36h-178.36s-44.01-.71-44.01-35.99v-54.25Z"/>
  <path class="cls-1" d="M1381.61,265.9v-25.45s1.4-14.18-17.87-14.18h-121.1c-13.81,0-14.91,14.18-14.91,14.18v25.45h153.88ZM1160.05,352.87v-121.11s.35-33.19,41.45-33.19h211.68c32.22,0,34.7,31.7,34.7,31.7v122.59h-67.36v-58.91h-152.79v58.91h-67.68Z"/>
  <path class="cls-1" d="M1556.74,268.09h137.94c13.47,0,12.72-11.26,12.72-11.26v-16.72c0-11.3-13.83-13.84-13.83-13.84h-121.25c-16.94,0-15.59,14.12-15.59,14.12v27.7ZM1523.94,198.58h212.55s40.78-.28,40.78,32.4v37.88s0,30.9-36.38,30.9c-2.91,0-9.58.04-9.58.04l40.89,53.07h-85.89l-37.72-53.07h-91.14v53.07h-68.37v-123.34s1.04-30.96,34.85-30.96"/>
  <path class="cls-1" d="M1885.45,226.26v96.79h81.54s26.51-.36,46.43-7.91c10.56-4.16,24.84-17.53,24.84-26.82v-52.58s1.65-9.48-9.84-9.48h-142.98ZM1845.54,198.59h231.75s25.38-1.61,25.38,23.5v66.85s-3.09,31.02-29.18,44.73c0,0-29.85,19.1-67.19,19.21h-184.17v-129.92s-.04-24.36,23.41-24.36"/>
  <path class="cls-1" d="M2122.09,328.89v3.93h-7.61v19.9h-4.74v-19.9h-7.62v-3.93h19.98ZM2147.86,352.72l-.87-14.02c-.09-1.84-.09-4.13-.18-6.66h-.27c-.6,2.1-1.31,4.91-2.01,7.1l-4.29,13.24h-4.91l-4.29-13.58c-.44-1.85-1.14-4.65-1.67-6.75h-.26c-.01,2.19-.09,4.47-.18,6.66l-.87,14.02h-4.57l1.77-23.83h7.1l4.11,11.65c.53,1.85.96,3.6,1.58,6.05h.09c.61-2.19,1.14-4.2,1.67-5.96l4.13-11.74h6.83l1.83,23.83h-4.73Z"/>
</svg>