<?xml version="1.0" encoding="UTF-8"?>
<svg id="Capa_2" xmlns="http://www.w3.org/2000/svg" xmlns:xlink="http://www.w3.org/1999/xlink" viewBox="0 0 447 301.99">
  <defs>
    <style>
      .cls-1 {
        fill: #fff;
      }

      .cls-2 {
        fill: none;
      }

      .cls-3 {
        fill: url(#Degradado_sin_nombre_13);
      }

      .cls-4 {
        fill: url(#Degradado_sin_nombre_7);
      }

      .cls-5 {
        fill: #db246d;
      }
    </style>
    <linearGradient id="Degradado_sin_nombre_7" data-name="Degradado sin nombre 7" x1="54.49" y1="115.2" x2="392.65" y2="115.2" gradientUnits="userSpaceOnUse">
      <stop offset=".21" stop-color="#b70f65"/>
      <stop offset=".39" stop-color="#c51767"/>
      <stop offset=".67" stop-color="#d6226a"/>
      <stop offset=".88" stop-color="#dd266c"/>
    </linearGradient>
    <linearGradient id="Degradado_sin_nombre_13" data-name="Degradado sin nombre 13" x1="230.03" y1="109.76" x2="382.78" y2="109.76" gradientUnits="userSpaceOnUse">
      <stop offset=".21" stop-color="#b70f65"/>
      <stop offset=".88" stop-color="#dc2b6e"/>
    </linearGradient>
  </defs>
  <g id="Capa_1-2" data-name="Capa_1">
    <g>
      <g>
        <rect class="cls-2" width="447" height="301.99"/>
        <g>
          <g>
            <polygon class="cls-5" points="91.81 177.74 76.46 208.3 61.16 177.83 61.11 177.74 55.03 177.74 73.59 214.2 73.59 232.77 79.47 232.77 79.47 214.27 98.24 177.74 91.81 177.74"/>
            <path class="cls-5" d="M119.73,190.86c-6.07-.36-11.24,1.66-15.81,6.15-4.41,4.34-6.58,9.64-6.44,15.73.07,5.77,2.22,10.66,6.58,14.95,4.18,4.03,9.06,6.08,14.52,6.08h.28c4.48-.07,8.44-1.36,12.09-3.94,3.62-2.56,6.22-6.07,7.72-10.44l.08-.24h-6.11l-.05.1c-2.73,5.75-7.29,8.69-13.53,8.76-3.97.08-7.53-1.23-10.59-3.86-2.92-2.51-4.63-5.8-5.09-9.76h36.29v-3.08c0-5.06-1.95-9.68-5.79-13.74-3.96-4.1-8.72-6.36-14.16-6.72ZM133.96,209.08h-30.55c.81-3.74,2.61-6.76,5.35-8.97,2.92-2.35,6.3-3.5,10.1-3.44,3.84.07,7.17,1.27,9.89,3.57,2.67,2.26,4.42,5.23,5.21,8.84Z"/>
            <path class="cls-5" d="M179.27,197.58c-3.94-4.15-8.85-6.36-14.59-6.58-5.93-.21-11.06,1.83-15.24,6.08-4.22,4.22-6.36,9.37-6.36,15.3s2,10.65,5.93,14.8c3.89,4.1,8.73,6.29,14.38,6.51.26,0,.52.01.78.01,5.92,0,11.04-2.34,15.22-6.96v6.02h5.6v-20.45c.21-5.62-1.71-10.58-5.72-14.74ZM179.25,211.89c.07,4.51-1.42,8.3-4.56,11.58-3.09,3.23-6.86,4.76-11.21,4.56-4.11-.21-7.63-1.89-10.44-4.98-2.82-3.09-4.21-6.82-4.14-11.08.07-4.32,1.56-7.87,4.56-10.87,3.02-3.02,6.57-4.49,10.87-4.49s7.6,1.51,10.44,4.48c2.91,3.05,4.42,6.69,4.49,10.8Z"/>
            <path class="cls-5" d="M226.36,197.51c-3.92-4.13-8.75-6.3-14.38-6.44-5.82-.2-10.94,1.85-15.24,6.15-4.22,4.22-6.36,9.33-6.36,15.16v34.57h5.6v-20.07c4.03,4.36,9,6.68,14.78,6.88,5.82.21,10.92-1.84,15.17-6.08,4.22-4.3,6.36-9.47,6.36-15.37s-2-10.65-5.94-14.8ZM226.55,212.73c-.07,4.27-1.59,7.83-4.63,10.87-3.02,3.02-6.55,4.49-10.8,4.49s-7.67-1.51-10.51-4.48c-2.91-3.05-4.42-6.69-4.49-10.8-.07-4.44,1.4-8.2,4.49-11.5,2.95-3.08,6.37-4.57,10.46-4.57.27,0,.54,0,.82.02,4.1.14,7.52,1.77,10.44,4.98,2.9,3.18,4.28,6.79,4.21,11.01Z"/>
          </g>
          <g>
            <path class="cls-1" d="M276.59,212.59c.14,5.82-1.91,10.85-6.24,15.11-4.33,4.18-9.36,6.24-15.18,6.03-5.6-.14-10.42-2.27-14.32-6.38-3.9-4.11-5.82-9.01-5.82-14.68s2.13-10.99,6.31-15.18c4.18-4.25,9.22-6.31,15.03-6.1,5.96.21,10.92,2.62,14.89,7.16v-20.35h5.32v34.4ZM255.25,228.41c4.47.21,8.23-1.28,11.35-4.61,3.19-3.33,4.68-7.16,4.54-11.63-.07-4.26-1.63-7.87-4.54-10.92s-6.38-4.54-10.57-4.54c-4.25-.07-7.94,1.49-10.99,4.54-3.05,3.05-4.54,6.67-4.61,10.99-.07,4.25,1.35,8.02,4.25,11.21,2.91,3.19,6.38,4.82,10.57,4.96Z"/>
            <path class="cls-1" d="M323.82,232.59h-5.25v-6.31c-4.4,5.04-9.79,7.45-16.17,7.23-5.6-.21-10.35-2.34-14.26-6.45-3.9-4.11-5.88-9.01-5.88-14.68s2.13-10.99,6.31-15.18c4.19-4.25,9.22-6.24,15.11-6.03,5.67.21,10.5,2.34,14.47,6.52,3.97,4.11,5.89,9.01,5.67,14.61v20.28ZM287.73,211.95c-.07,4.26,1.28,8.02,4.18,11.21,2.91,3.19,6.45,4.82,10.57,5.04,4.47.21,8.23-1.35,11.35-4.61,3.19-3.33,4.68-7.23,4.61-11.7-.07-4.25-1.63-7.87-4.54-10.92-2.91-3.05-6.45-4.54-10.57-4.54-4.33,0-7.94,1.49-10.99,4.54-3.05,3.05-4.54,6.67-4.61,10.99Z"/>
            <path class="cls-1" d="M344.25,233.44c-9.86,0-14.75-4.18-14.75-12.55v-42.91h5.46v14.11h9.29v5.04h-9.29v22.84c0,6.03,3.12,9.01,9.29,9.01v4.47Z"/>
            <path class="cls-1" d="M390.48,232.59h-5.25v-6.31c-4.4,5.04-9.79,7.45-16.17,7.23-5.6-.21-10.35-2.34-14.25-6.45-3.9-4.11-5.89-9.01-5.89-14.68s2.13-10.99,6.31-15.18c4.18-4.25,9.22-6.24,15.11-6.03,5.67.21,10.5,2.34,14.47,6.52,3.97,4.11,5.88,9.01,5.67,14.61v20.28ZM354.39,211.95c-.07,4.26,1.28,8.02,4.19,11.21,2.91,3.19,6.45,4.82,10.57,5.04,4.47.21,8.23-1.35,11.35-4.61,3.19-3.33,4.68-7.23,4.61-11.7-.07-4.25-1.63-7.87-4.54-10.92-2.91-3.05-6.45-4.54-10.57-4.54-4.32,0-7.94,1.49-10.99,4.54-3.05,3.05-4.54,6.67-4.61,10.99Z"/>
          </g>
          <g>
            <path class="cls-4" d="M365.36,99.28c.08-1.02.12-2.07.12-3.12,0-22.68-18.45-41.13-41.12-41.13-15.7,0-30.22,9.15-37.04,23.34-1.73-.25-3.46-.38-5.14-.38-18.55,0-34.16,13.82-36.41,32.19-9.41.22-15.51,2.96-19.75,8.84-.44.38-.68.78-.89,1.24l-.1.36c-.04.16-.08.34-.08.53,0,1.51,1.23,2.75,2.75,2.75.87,0,1.67-.43,2.19-1.17,4.18-4.93,10.25-7.75,16.65-7.75,1.05,0,2.17.1,3.43.29l.35.06v-.36c0-.06,0-.11,0-.17,0-.04,0-.08,0-.13,0-17.58,14.3-31.88,31.88-31.88,2.53,0,5.15.34,7.78,1l.27.07.1-.26c5.25-14.21,18.93-23.76,34.04-23.76.94,0,1.9.04,2.84.11,14.72,1.12,27.54,11.49,31.91,25.8,1.74,5.7,2.03,11.58.87,17.48l-.07.36h.15c6.21.16,12.27,2.27,17.04,6.25,7.06,5.88,10.64,14.39,9.99,23.36-1.04,14.31-13.53,25.51-28.43,25.51h-147c-1.13,0-2.18-.57-2.8-1.52l-5.4-8.29-1.68-2.69-5.73,15.26-6.69-24.94-6.59,28.06-12.68-33.76-6.66,28.37-5.86-9.37-5.85,12.45-6.5-20.77-6.83,18.19-6.18-9.87-5.98,12.73-6.4-17.05-7.29,17-4.94-12.28-6.88,7.33-4.32-4.6c-.86-.91-2.05-1.43-3.3-1.43h-36.35c-.87,0-1.57.7-1.57,1.57h0c0,.87.7,1.57,1.57,1.57h35.26c1.08,0,2.12.45,2.86,1.24l5.86,6.24,5.8-6.18,5.92,14.72,7.19-16.76,6.27,16.7,6.7-14.27,6.5,10.38,5.85-15.57,6.18,19.74,6.83-14.55,6.81,10.88,6.02-25.64,12.68,33.75,6.09-25.95,5.98,22.32,6.71-17.87,4.9,6.83.98,1.28c.75.98,1.92,1.56,3.15,1.56l148.31-.04c17.85,0,32.37-14.52,32.37-32.37,0-15.78-11.17-29.13-26.61-31.85Z"/>
            <path class="cls-3" d="M230.39,136.71c-.58,7.33,3.55,13.81,9.8,16.58,2.09.93,4.39,1.31,6.68,1.31l112.34.04c1.27,0,2.55-.05,3.81-.26,11.47-1.86,20-12.04,19.42-24.04-.58-11.88-10.36-21.39-22.23-22.01-1.17-.06-2.34-.01-3.78.17,1.06-3.32,1.6-6.74,1.6-10.16,0-18.46-15.02-33.47-33.47-33.47-15.02,0-28.23,10.08-32.23,24.55-2.2-.45-4.43-.68-6.63-.68-18.19,0-32.98,14.8-32.98,32.98,0,.25.02.5.03.74,0,0,0,.01,0,.02-2.22-.83-4.56-1.17-6.94-1.01-8.12.56-14.78,7.11-15.43,15.23Z"/>
          </g>
        </g>
      </g>
      <g>
        <path class="cls-1" d="M387.64,181.45v-12.83h5.46c1.37,0,2.36.11,2.99.34.62.23,1.12.64,1.49,1.23.37.59.56,1.26.56,2.02,0,.96-.29,1.76-.85,2.38-.56.63-1.41,1.02-2.54,1.19.56.33,1.02.69,1.39,1.08.37.39.86,1.09,1.48,2.08l1.56,2.5h-3.1l-1.87-2.79c-.67-1-1.12-1.63-1.36-1.89-.25-.26-.51-.44-.78-.53-.27-.1-.71-.15-1.3-.15h-.52v5.36h-2.59ZM390.23,174.04h1.92c1.24,0,2.02-.05,2.32-.16.31-.11.55-.29.73-.54s.26-.58.26-.96c0-.43-.12-.78-.35-1.05-.23-.26-.55-.43-.98-.5-.21-.03-.84-.04-1.89-.04h-2.02v3.26Z"/>
        <path class="cls-1" d="M404.05,175.52c0,6.26-5.07,11.33-11.33,11.33s-11.33-5.07-11.33-11.33,5.07-11.33,11.33-11.33,11.33,5.07,11.33,11.33ZM392.71,185.1c5.28,0,9.58-4.29,9.58-9.57s-4.29-9.58-9.58-9.58-9.57,4.29-9.57,9.58,4.29,9.57,9.57,9.57h0Z"/>
      </g>
    </g>
  </g>
</svg>