<?xml version="1.0" encoding="UTF-8"?>
<svg id="Capa_2" data-name="Capa 2" xmlns="http://www.w3.org/2000/svg" viewBox="0 0 933.17 292.47">
  <defs>
    <style>
      .cls-1 {
        fill: #fff;
      }
    </style>
  </defs>
  <g id="Layer_1" data-name="Layer 1">
    <g>
      <g>
        <path class="cls-1" d="M433.02,125.47c-9.27,0-19.8-2.86-26.44-8.01-2.29-1.83-3.89-4.12-3.89-6.64,0-3.55,2.29-5.95,5.84-5.95,1.26,0,2.4.34,3.55,1.03,6.18,3.89,10.42,7.33,21.18,7.33s15.34-4.47,15.34-9.62c0-5.61-4.47-8.47-18.2-12.14-20.72-5.49-26.9-12.13-26.9-23.58,0-13.96,12.02-21.4,30.22-21.4,4.12,0,9.73.68,14.65,2.06,5.27,1.49,11.91,4.81,11.91,9.39,0,3.09-1.83,6.3-5.72,6.3-.91,0-1.83-.12-2.75-.57-5.27-2.4-10.76-4.81-17.97-4.81-10.19,0-16.37,2.75-16.37,8.7,0,5.61,4.58,7.56,18.31,11.56,15.68,4.58,26.79,9.04,26.79,23.7,0,13.28-10.07,22.67-29.53,22.67Z"/>
        <path class="cls-1" d="M536.26,61.02h-19.58v56.89c0,3.89-3.2,7.1-7.1,7.1s-6.87-3.2-6.87-7.1v-56.89h-19.69c-3.66,0-6.64-2.97-6.64-6.52s2.86-6.64,6.64-6.64h53.23c3.66,0,6.64,2.98,6.64,6.64s-2.86,6.52-6.64,6.52Z"/>
        <path class="cls-1" d="M611.22,124.1h-42.93c-3.89,0-7.1-3.09-7.1-6.98v-62.27c0-3.89,3.2-6.98,7.1-6.98h41.21c3.66,0,6.64,2.75,6.64,6.41s-2.97,6.53-6.64,6.53h-34.34v18.2h18.89c3.55,0,6.53,2.86,6.53,6.53s-2.98,6.41-6.53,6.41h-18.89v19.23h36.06c3.66,0,6.64,2.86,6.64,6.53s-2.98,6.41-6.64,6.41Z"/>
        <path class="cls-1" d="M644.4,124.1c-3.89,0-7.1-3.2-7.1-7.1v-62.96c0-3.89,3.2-7.1,7.1-7.1s6.87,3.2,6.87,7.1v56.89h33.43c3.55,0,6.53,2.86,6.53,6.53s-2.98,6.53-6.53,6.64h-40.3Z"/>
        <path class="cls-1" d="M716.96,124.1c-3.89,0-7.1-3.2-7.1-7.1v-62.96c0-3.89,3.21-7.1,7.1-7.1s6.87,3.2,6.87,7.1v56.89h33.42c3.55,0,6.53,2.86,6.53,6.53s-2.97,6.53-6.53,6.64h-40.29Z"/>
        <path class="cls-1" d="M830.85,107.27h-33.88l-6.53,13.97c-1.26,2.29-2.86,3.77-5.84,3.77-4.12,0-6.64-3.2-6.64-6.53,0-.91.23-1.83.68-2.75l29.3-65.13c1.03-2.29,2.98-3.66,5.95-3.66s4.92,1.26,5.95,3.66l29.3,65.13c.46.92.69,1.83.69,2.75,0,3.32-2.52,6.53-6.64,6.53-2.98,0-4.58-1.37-5.84-3.77l-6.53-13.97ZM813.91,65.95l-11.91,29.08h23.81l-11.91-29.08Z"/>
        <path class="cls-1" d="M933.17,118.03c0,3.55-2.75,6.98-6.98,6.98-3.09,0-5.04-1.37-6.18-3.77l-13.39-27.59h-23.01v24.38c0,3.89-3.09,6.98-6.98,6.98s-6.98-3.09-6.98-6.98v-63.19c0-3.89,3.09-6.98,6.98-6.98h29.42c19,0,27.13,9.39,27.13,22.9,0,8.93-3.89,16.6-12.59,20.37l11.79,23.93c.46.91.8,1.95.8,2.97ZM907.98,60.68h-24.38v20.95h24.38c7.67,0,11.1-5.61,11.1-10.76s-3.43-10.19-11.1-10.19Z"/>
        <path class="cls-1" d="M468.06,187.37c.46.69.92,1.38.92,2.29,0,1.83-1.38,3.09-3.21,3.09-1.03,0-1.72-.34-2.4-1.26-5.72-7.21-12.59-12.25-24.61-12.25-19.8,0-31.25,15.8-31.25,33.2s11.45,33.2,31.25,33.2c12.02,0,18.89-5.04,24.61-12.25.69-.91,1.38-1.26,2.4-1.26,1.83,0,3.21,1.26,3.21,3.09,0,.92-.46,1.6-.92,2.29-6.18,8.13-15.68,14.43-29.3,14.43-23.12,0-38.12-17.74-38.12-39.49s15-39.49,38.12-39.49c13.62,0,23.12,6.29,29.3,14.42Z"/>
        <path class="cls-1" d="M516.58,217.13v30.91c0,1.95-1.49,3.43-3.43,3.43s-3.43-1.49-3.43-3.43v-30.91l-26.9-38.69c-.46-.69-.69-1.38-.69-1.95,0-1.95,1.38-3.09,3.09-3.09,1.14,0,2.18.46,2.98,1.6l24.96,35.72,24.95-35.72c.8-1.14,1.83-1.6,2.98-1.6,1.72,0,3.09,1.14,3.09,3.09,0,.57-.23,1.26-.69,1.95l-26.9,38.69Z"/>
        <path class="cls-1" d="M594.63,250.55h-28.73c-1.95,0-3.43-1.6-3.43-3.43v-69.37c0-1.95,1.26-3.43,3.43-3.43h25.99c13.05,0,22.55,7.21,22.55,18.77,0,7.78-3.32,13.05-11.79,16.48,9.73,1.6,17.86,8.24,17.86,20.03,0,10.76-8.58,20.95-25.87,20.95ZM592,180.27h-22.67v27.13h23.24c9.61,0,14.99-6.41,14.99-13.62,0-8.81-6.06-13.51-15.57-13.51ZM569.33,213.35v31.25h25.76c12.36,0,18.54-6.99,18.54-15.68,0-9.85-7.21-15.57-18.89-15.57h-25.41Z"/>
        <path class="cls-1" d="M650.25,244.37h40.75c1.72,0,3.09,1.38,3.09,3.09s-1.38,3.09-3.09,3.09h-44.19c-1.95,0-3.43-1.49-3.43-3.43v-69.37c0-1.95,1.49-3.43,3.43-3.43h44.07c1.72,0,3.09,1.38,3.09,3.09s-1.38,3.09-3.09,3.09h-40.64v27.59h23.58c1.72,0,3.09,1.37,3.09,3.09s-1.37,3.09-3.09,3.09h-23.58v30.11Z"/>
        <path class="cls-1" d="M759.44,216.1l14.88,30.45c.23.46.46,1.03.46,1.6,0,1.72-1.37,3.32-3.32,3.32-1.72,0-2.52-.68-3.21-1.95l-16.14-32.85h-28.28v31.36c0,1.95-1.37,3.43-3.43,3.43-1.95,0-3.43-1.49-3.43-3.43v-70.28c0-1.95,1.61-3.43,3.43-3.43h32.86c15.11,0,23.46,9.04,23.46,21.18,0,10.42-6.06,18.54-17.28,20.61ZM754.63,180.5h-30.79v29.99h30.79c9.5,0,15.23-6.29,15.23-15s-5.72-15-15.23-15Z"/>
        <path class="cls-1" d="M808.67,202.2c-8.37,0-14.35-6.32-14.35-14.18s5.98-14.18,14.35-14.18,14.35,6.24,14.35,14.18-5.98,14.18-14.35,14.18ZM808.67,176.23c-7.43,0-11.79,5.38-11.79,11.79s4.36,11.79,11.79,11.79,11.79-5.38,11.79-11.79-4.36-11.79-11.79-11.79ZM811.83,189.13l2.73,4.36c.08.17.17.34.17.68,0,.51-.6,1.11-1.28,1.11-.6,0-.94-.34-1.19-.77l-2.91-4.95h-2.65v4.7c0,.51-.51,1.11-1.19,1.11s-1.28-.6-1.28-1.11v-12.73c0-.68.6-1.28,1.28-1.28h3.67c3.42,0,5.3,1.88,5.3,4.61,0,1.97-.85,3.5-2.65,4.27ZM806.7,182.55v4.7h2.73c1.62,0,2.48-1.11,2.48-2.39,0-1.37-.85-2.31-2.48-2.31h-2.73Z"/>
      </g>
      <g>
        <path class="cls-1" d="M145.62,2.08l35.11,39.54c4.46,5.02-1.12,12.55-7.22,9.76l-27.83-12.76c-1.7-.78-3.67-.75-5.35.09l-39.91,19.88c-6.17,3.07-12-4.71-7.32-9.77L136.42,1.99c2.49-2.69,6.76-2.65,9.19.1Z"/>
        <path class="cls-1" d="M154.45,164.83l6.1,58.93c.41,3.93,4.17,6.63,8.02,5.74l67.71-15.48c7.41-1.69,11.32,8.43,4.71,12.16l-115.95,65.41c-4.95,2.79-10.88-1.58-9.68-7.13l26.09-120.35c1.59-7.32,12.22-6.74,12.99.72Z"/>
        <path class="cls-1" d="M106.01,89.48l-38.2,13.65c-2.25.8-3.17,3.49-1.89,5.5l43.76,68.81c2.2,3.46-2,7.42-5.33,5.01L1.54,107.88c-2.65-1.92-1.71-6.07,1.5-6.67l101.03-18.89c4.51-.84,6.25,5.62,1.94,7.16Z"/>
        <path class="cls-1" d="M220.61,48.74l35.45,17.66c1.79.89,2.59,3.02,1.82,4.87l-12.35,29.96c-1.47,3.56,2.67,6.81,5.78,4.53l52.22-38.19c2.62-1.92,1.8-6.02-1.35-6.78l-78.97-19.17c-4.42-1.07-6.67,5.09-2.6,7.12Z"/>
        <path class="cls-1" d="M242.57,154.44l46.1,15.17c3.48,1.14,7.01-1.6,6.75-5.25l-2.29-32.56c-.42-5.99,8-7.73,10-2.07l32.3,91.75c1.67,4.74-3.75,8.83-7.85,5.91l-89.61-63.84c-4.81-3.43-1.01-10.94,4.6-9.09Z"/>
      </g>
    </g>
  </g>
</svg>