<?xml version="1.0" encoding="UTF-8"?>
<svg id="Capa_2" xmlns="http://www.w3.org/2000/svg" viewBox="0 0 1277.07 186.13">
  <defs>
    <style>
      .cls-1 {
        fill: #fff;
      }

      .cls-2 {
        fill: none;
        stroke: #fff;
        stroke-miterlimit: 10;
        stroke-width: 2px;
      }
    </style>
  </defs>
  <g id="Capa_1-2" data-name="Capa_1">
    <g>
      <g>
        <path class="cls-1" d="M79.61,170.89c-10.89-3.39-22.6-5.22-32.53-10.42C-2.64,134.44-13.2,76.34,16.45,36.34,44.07-.94,91.43-9.08,129.39,9.82c22.99,11.44,36.75,29.88,44.56,53.92,3.84,11.83,4.38,23.4,2.45,35.26-5.74,35.33-37.66,65.96-73.34,70.76-2.08.28-4.13.75-6.19,1.13h-17.25ZM167.03,85.84c.24-43.91-35.78-76.06-78.4-76.35C45.26,9.19,9.78,45.29,9.62,85.15c-.16,40.12,35.01,76.61,78.89,76.35,42.9-.25,78.33-32.2,78.51-75.66Z"/>
        <path class="cls-1" d="M916.82,126.25c-13.85,2.6-23.67-2.22-29.86-15.09-2.28-4.74-6.2-8.68-9.23-13.08-2.26-3.28-4.01-3.36-6.36.04-5.42,7.85-11.29,15.41-16.59,23.33-2.38,3.55-4.9,5.36-9.33,4.87-3.78-.42-7.65-.09-12.01-.09,10.43-14.09,20.6-27.82,30.96-41.81-9.55-13.11-18.95-26.02-28.8-39.55,5.41,0,10.82-.2,16.19.15,1.3.08,2.76,1.8,3.69,3.09,6.02,8.35,11.92,16.79,18.4,25.96,1.61-1.51,3.24-2.63,4.33-4.13,4.81-6.65,9.71-13.26,14.06-20.2,2.45-3.91,5.33-5.42,9.82-4.98,3.36.33,6.78.07,11.43.07-6.43,8.89-12.23,16.83-17.94,24.83-3.43,4.8-9.33,9.69-9.35,14.55-.02,4.83,5.86,9.73,9.29,14.51,5.23,7.29,10.48,14.57,15.92,21.71,1.41,1.85,3.57,3.13,5.38,4.68v1.14Z"/>
        <path class="cls-1" d="M580.13,125.79V44.87c4.52,0,9.04-.24,13.5.14,1.33.11,2.76,1.77,3.71,3.03,12.36,16.42,24.65,32.89,36.96,49.35.67.9,1.43,1.75,2.99,3.65v-55.79h15.75v80.96c-4.25,0-8.62.33-12.88-.17-1.67-.2-3.49-2-4.61-3.53-9.25-12.63-18.25-25.43-27.53-38.03-3.89-5.29-8.26-10.24-13.17-16.27v57.56h-14.73Z"/>
        <path class="cls-1" d="M687.32,125.95h-15.63V44.84c4.89,0,9.48-.32,13.97.17,1.68.18,3.52,1.99,4.65,3.53,8.16,11.05,16.03,22.31,24.25,33.31,4.7,6.29,9.87,12.24,15.74,19.48v-56.16h14.06v80.28c-10.41,2.53-12.92,1.53-19-6.63-12.37-16.59-24.89-33.08-38.02-50.5v57.62Z"/>
        <path class="cls-1" d="M300.15,125.93V44.14c15.31.75,30.85-.76,45.16,2.71,25.69,6.24,37.84,31.86,26.23,56.56-6.26,13.32-18.47,21.35-33.67,22.35-12.34.81-24.78.17-37.72.17ZM314.39,113.37c7.22,0,13.55.47,19.78-.09,15.38-1.39,24.98-11.97,25.32-27.27.33-14.81-8.3-26.2-22.28-27.99-7.28-.93-14.78-.16-22.51-.16-.12,1.74-.3,3.21-.3,4.69-.02,16.71-.01,33.42-.01,50.83Z"/>
        <path class="cls-1" d="M764.51,45.01h56.45v12.43h-41.98v20.73h41.08v12.79h-41.11v22.21h42v12.69h-56.43V45.01Z"/>
        <path class="cls-1" d="M483.58,54.16c-2.4,3.81-4.61,7.33-7.13,11.34-7.51-6.23-15.77-9.67-25.35-9.03-2.27.15-5.14.03-6.61,1.31-2.66,2.3-5.81,5.41-6.17,8.48-.25,2.17,3.29,5.9,5.96,7.07,5.18,2.27,10.98,3.12,16.46,4.78,4.38,1.33,8.75,2.76,12.95,4.56,8.48,3.65,13.58,10.94,13.59,19.42.01,8.77-4.51,16.7-12.99,21.33-15.22,8.32-40.47,4.57-53.42-8.41,2.33-3.62,4.75-7.37,7.46-11.56,7.29,7.28,15.7,11.27,25.44,11.11,4.58-.08,9.69-1.09,13.57-3.35,6.31-3.67,5.84-11.48-.78-14.61-5.63-2.66-11.9-3.97-17.91-5.84-4-1.25-8.16-2.09-12.01-3.71-8.44-3.54-13.62-9.57-13.71-19.2-.09-9.65,4.62-16.32,12.9-20.63,14.04-7.3,35.49-4.26,47.77,6.93Z"/>
        <path class="cls-1" d="M490.76,44.82c5.11,0,8.98-.42,12.71.16,2.25.35,5,1.71,6.26,3.49,6.98,9.89,13.57,20.05,20.98,31.16,3.85-5.98,7.06-10.98,10.28-15.98,1.54-2.4,3.51-4.65,4.54-7.26,4.55-11.55,13.2-13.85,25.09-10.67-2.68,3.38-5.52,6.52-7.87,9.99-7.61,11.19-15.13,22.44-22.46,33.8-1.24,1.93-1.89,4.55-1.94,6.88-.21,9.68-.09,19.36-.09,29.44h-15.88c0-9.29.26-18.74-.14-28.16-.14-3.37-1.22-7.11-3.03-9.93-9.03-14.07-18.44-27.9-28.45-42.91Z"/>
        <path class="cls-1" d="M223.62,45.15h64.35v12.25h-24.2v68.41h-15.97V57.76h-24.19v-12.61Z"/>
        <path class="cls-1" d="M45.68,44.34c-6.71,11.67-8.64,23.84-5.36,36.84,5.31,21.06,24.97,33.81,44.61,34.91,4.38.25,8.8-.38,13.19-.25,7.05.2,12.35,5.38,13.27,12.61.82,6.39-3.57,13.49-9.96,14.89-22.96,5.01-52-4.13-65.62-28.07-13.22-23.22-9.51-54.11,8.57-70.73.2-.18.64-.11,1.3-.2Z"/>
        <path class="cls-1" d="M79.58,106.82c-13.95-4.34-25.47-11.64-30.04-26.53-4.36-14.18-2.33-27.79,7.97-38.43,11.43-11.82,25.78-17.33,43.21-12.62-33.17,8.38-45.99,50.02-21.13,77.58Z"/>
        <path class="cls-1" d="M142.91,57.68c-25.6-13.92-59.56-1.22-63.64,30.33-9.31-13.16-3.73-34.5,11.81-43.95,17.51-10.66,41.57-4.66,51.83,13.62Z"/>
      </g>
      <g>
        <path class="cls-1" d="M1108.38,96.66c0,2.89.31,5.23.86,6.95.62,1.72,1.41,3.59,2.5,5.62.39.62.55,1.25.55,1.8,0,.78-.47,1.56-1.48,2.34l-4.92,3.28c-.7.47-1.41.7-2.03.7-.78,0-1.56-.39-2.34-1.09-1.09-1.17-2.03-2.42-2.81-3.67-.78-1.33-1.56-2.81-2.42-4.61-6.09,7.19-13.75,10.78-22.96,10.78-6.56,0-11.79-1.87-15.62-5.62-3.83-3.75-5.78-8.75-5.78-15,0-6.64,2.34-12.03,7.11-16.09,4.76-4.06,11.09-6.09,19.13-6.09,2.66,0,5.39.23,8.28.62,2.89.39,5.86,1.02,8.98,1.72v-5.7c0-5.94-1.25-10.08-3.67-12.5-2.5-2.42-6.72-3.59-12.73-3.59-2.73,0-5.55.31-8.43,1.02s-5.7,1.56-8.43,2.66c-1.25.55-2.19.86-2.73,1.02-.55.16-.94.23-1.25.23-1.09,0-1.64-.78-1.64-2.42v-3.83c0-1.25.16-2.19.55-2.73s1.09-1.09,2.19-1.64c2.73-1.41,6.01-2.58,9.83-3.51,3.82-1.02,7.88-1.48,12.18-1.48,9.29,0,16.08,2.11,20.45,6.33,4.29,4.22,6.48,10.62,6.48,19.21v25.31h.19ZM1076.7,108.57c2.58,0,5.23-.47,8.05-1.41,2.81-.94,5.31-2.66,7.42-5,1.25-1.48,2.19-3.12,2.66-5s.78-4.14.78-6.8v-3.28c-2.27-.55-4.69-1.02-7.19-1.33s-4.92-.47-7.34-.47c-5.23,0-9.06,1.02-11.64,3.12-2.58,2.11-3.83,5.08-3.83,8.98,0,3.67.94,6.4,2.89,8.28,1.87,1.95,4.61,2.89,8.2,2.89h0ZM1139.44,117.14c-1.41,0-2.35-.23-2.97-.78-.63-.47-1.17-1.57-1.64-3.05l-18.39-60.5c-.47-1.57-.7-2.58-.7-3.13,0-1.25.63-1.96,1.88-1.96h7.69c1.48,0,2.5.23,3.05.78.62.47,1.09,1.56,1.56,3.05l13.12,51.69,12.18-51.69c.39-1.56.86-2.58,1.48-3.05.62-.47,1.72-.78,3.12-.78h6.25c1.48,0,2.5.23,3.12.78.62.47,1.17,1.56,1.48,3.05l12.34,52.31,13.51-52.31c.47-1.56,1.02-2.58,1.56-3.05.62-.47,1.64-.78,3.05-.78h7.26c1.25,0,1.95.62,1.95,1.95,0,.39-.08.78-.16,1.25-.08.47-.23,1.09-.55,1.95l-18.82,60.35c-.47,1.56-1.02,2.58-1.64,3.05s-1.64.78-2.97.78h-6.71s-2.5-.19-3.12-.74-1.17-1.56-1.48-3.12l-12.11-50.38-12.03,50.3c-.39,1.56-.86,2.58-1.48,3.12-.62.55-3.12.91-3.12.91h-6.69ZM1239.74,119.09c-4.06,0-8.12-.47-12.02-1.41-3.9-.94-6.95-1.95-8.98-3.12-1.25-.7-2.11-1.48-2.42-2.19-.31-.7-.47-1.48-.47-2.19v-3.98c0-1.64.62-2.42,1.8-2.42.47,0,.94.08,1.41.23.47.16,1.17.47,1.95.78,2.65,1.17,5.54,2.11,8.59,2.73,3.12.62,6.17.94,9.29.94,4.92,0,8.74-.86,11.4-2.58,2.65-1.72,4.06-4.22,4.06-7.42,0-2.19-.7-3.98-2.11-5.46-1.41-1.48-4.06-2.81-7.88-4.06l-11.32-3.51c-5.7-1.8-9.91-4.45-12.49-7.96-2.58-3.43-3.9-7.26-3.9-11.32,0-3.28.7-6.17,2.11-8.66s3.28-4.68,5.62-6.4c2.34-1.8,5-3.12,8.12-4.06,3.12-.94,6.4-1.33,9.84-1.33,1.72,0,3.51.08,5.23.31,1.8.23,3.43.55,5.07.86,1.56.39,3.04.78,4.45,1.25,1.41.47,2.5.94,3.28,1.41,1.09.62,1.87,1.25,2.34,1.95.47.62.7,1.48.7,2.58v3.67c0,1.64-.62,2.5-1.8,2.5-.62,0-1.64-.31-2.97-.94-4.45-2.03-9.45-3.04-14.99-3.04-4.45,0-7.96.7-10.38,2.19-2.42,1.48-3.67,3.75-3.67,6.95,0,2.19.78,4.06,2.34,5.54,1.56,1.48,4.45,2.97,8.59,4.29l11.08,3.51c5.62,1.8,9.68,4.29,12.1,7.49s3.59,6.87,3.59,10.93c0,3.36-.7,6.4-2.03,9.05-1.41,2.65-3.28,5-5.7,6.87-2.42,1.95-5.31,3.36-8.66,4.37-3.51,1.09-7.18,1.64-11.16,1.64h0Z"/>
        <path class="cls-1" d="M1254.55,157.08c-25.7,18.98-63.03,29.06-95.14,29.06-44.99,0-85.53-16.64-116.15-44.29-2.42-2.19-.23-5.16,2.66-3.44,33.12,19.21,73.97,30.85,116.22,30.85,28.51,0,59.83-5.94,88.65-18.12,4.3-1.95,7.97,2.81,3.75,5.94h0Z"/>
        <path class="cls-1" d="M1265.25,144.89c-3.28-4.22-21.71-2.03-30.07-1.02-2.5.31-2.89-1.87-.62-3.51,14.68-10.31,38.82-7.34,41.63-3.91,2.81,3.51-.78,27.65-14.53,39.21-2.11,1.8-4.14.86-3.2-1.48,3.12-7.73,10.08-25.15,6.8-29.29Z"/>
      </g>
      <line class="cls-2" x1="967.09" y1="44.76" x2="967.09" y2="142.98"/>
    </g>
  </g>
</svg>